<svg width="16" height="17" viewBox="0 0 16 17" fill="none" xmlns="http://www.w3.org/2000/svg">
<g id="Group 121">
<path id="Vector" d="M15.8445 6.93323H15.2001V6.90003H8.00003V10.1H12.5213C11.8617 11.9628 10.0892 13.3001 8.00003 13.3001C5.34922 13.3001 3.20001 11.1508 3.20001 8.50003C3.20001 5.84922 5.34922 3.70001 8.00003 3.70001C9.22364 3.70001 10.3368 4.16162 11.1844 4.91562L13.4473 2.65281C12.0185 1.3212 10.1072 0.5 8.00003 0.5C3.58202 0.5 0 4.08202 0 8.50003C0 12.9181 3.58202 16.5001 8.00003 16.5001C12.4181 16.5001 16.0001 12.9181 16.0001 8.50003C16.0001 7.96363 15.9449 7.44003 15.8445 6.93323Z" fill="#FFC107"/>
<path id="Vector_2" d="M0.921875 4.77642L3.55029 6.70403C4.26149 4.94322 5.9839 3.70001 7.99951 3.70001C9.22311 3.70001 10.3363 4.16162 11.1839 4.91562L13.4467 2.65281C12.0179 1.3212 10.1067 0.5 7.99951 0.5C4.92669 0.5 2.26188 2.23481 0.921875 4.77642Z" fill="#FF3D00"/>
<path id="Vector_3" d="M8.0002 16.5005C10.0666 16.5005 11.9442 15.7097 13.3638 14.4237L10.8878 12.3285C10.0846 12.9369 9.08621 13.3005 8.0002 13.3005C5.9194 13.3005 4.15259 11.9737 3.48698 10.1221L0.878174 12.1321C2.20218 14.7229 4.89099 16.5005 8.0002 16.5005Z" fill="#4CAF50"/>
<path id="Vector_4" d="M15.8444 6.9331H15.2V6.8999H8V10.0999H12.5212C12.2044 10.9947 11.6288 11.7663 10.8864 12.3283C10.8868 12.3279 10.8872 12.3279 10.8876 12.3275L13.3636 14.4227C13.1884 14.5819 16 12.4999 16 8.49991C16 7.96351 15.9448 7.4399 15.8444 6.9331Z" fill="#1976D2"/>
</g>
</svg>
